PathFileType	4	(X/Y/Z)	/Users/itak/Documents/Research/Walk-IL/dataset/trc/00582_00009.trc
DataRate	CameraRate	NumFrames	NumMarkers	Units	OrigDataRate	OrigDataStartFrame	OrigNumFrames
100.000000	100.000000	4	54	mm	100.000000	436	499
Frame#	Time	RPSI			LPSI			L3			STRN			C7			CLAV			RBAK			LBAK			LSHO			LUPA			LAEL			LAOL			LWTS			LWPS			LFRA			LHPS			LHTS			RSHO			RUPA			RAEL			RAOL			RWTS			RWPS			RFRA			RIFD			RHTS			RHPS			RBHD			LFHD			RFHD			LBHD			LHIP			RHIP			RASI			LASI			LKNE			LTHI			LANK			LTIP			LTOE			LMT1			LMT5			LHEE			RKNE			RTHI			RANK			RTIP			RTOE			RMT1			RMT5			RHEE			LIFD			T10			*53			
		X1	Y1	Z1	X2	Y2	Z2	X3	Y3	Z3	X4	Y4	Z4	X5	Y5	Z5	X6	Y6	Z6	X7	Y7	Z7	X8	Y8	Z8	X9	Y9	Z9	X10	Y10	Z10	X11	Y11	Z11	X12	Y12	Z12	X13	Y13	Z13	X14	Y14	Z14	X15	Y15	Z15	X16	Y16	Z16	X17	Y17	Z17	X18	Y18	Z18	X19	Y19	Z19	X20	Y20	Z20	X21	Y21	Z21	X22	Y22	Z22	X23	Y23	Z23	X24	Y24	Z24	X25	Y25	Z25	X26	Y26	Z26	X27	Y27	Z27	X28	Y28	Z28	X29	Y29	Z29	X30	Y30	Z30	X31	Y31	Z31	X32	Y32	Z32	X33	Y33	Z33	X34	Y34	Z34	X35	Y35	Z35	X36	Y36	Z36	X37	Y37	Z37	X38	Y38	Z38	X39	Y39	Z39	X40	Y40	Z40	X41	Y41	Z41	X42	Y42	Z42	X43	Y43	Z43	X44	Y44	Z44	X45	Y45	Z45	X46	Y46	Z46	X47	Y47	Z47	X48	Y48	Z48	X49	Y49	Z49	X50	Y50	Z50	X51	Y51	Z51	X52	Y52	Z52	X53	Y53	Z53	X54	Y54	Z54	

437	4.36	873.833740234375	1014.255187988281	407.4598999023438	764.9947509765625	1021.416015625	329.8298034667969	821.1325073242188	1104.788330078125	364.3168334960938	948.8670654296875	1301.092529296875	181.3717193603516	856.223388671875	1504.755493164062	364.0295715332031	939.4988403320312	1411.898559570312	205.0649566650391	888.2774047851562	1372.684814453125	461.04541015625	760.0196533203125	1454.306884765625	340.1176147460938	740.4252319335938	1485.271362304688	215.3137054443359	667.9823608398438	1358.831909179688	178.1217956542969	660.3443603515625	1139.684204101562	138.1748352050781	665.8135375976562	1125.464721679688	238.0072937011719	751.2318115234375	903.7344360351562	63.47365570068359	667.2864990234375	879.8948974609375	66.25383758544922	666.9278564453125	1055.431030273438	109.1984176635742	679.1248168945312	820.1507568359375	60.46512222290039	742.4169921875	826.5894775390625	36.34402465820312	1018.088623046875	1460.827758789062	395.9925231933594	1063.675415039062	1392.180541992188	444.2159729003906	1094.505737304688	1099.877319335938	453.4577941894531	1040.385375976562	1082.585571289062	482.9214477539062	1132.870971679688	884.0285034179688	310.6065979003906	1160.7197265625	860.7391967773438	384.7960205078125	1105.363037109375	1044.991455078125	446.5330505371094	1134.08837890625	712.2195434570312	300.939453125	1160.301635742188	792.5940551757812	293.4643859863281	1167.9853515625	787.3175048828125	367.2022705078125	963.2637329101562	1684.928833007812	345.014404296875	914.0360107421875	1722.91845703125	146.3639221191406	1033.526245117188	1713.846923828125	226.3103485107422	829.0946044921875	1694.330444335938	245.7750701904297	729.315673828125	942.4876098632812	150.9926300048828	1042.116088867188	936.1032104492188	376.4164123535156	1045.758422851562	970.3875122070312	270.9275207519531	817.0191650390625	967.4091796875	115.5894927978516	790.3428344726562	496.2328186035156	161.7523498535156	760.1959228515625	662.3952026367188	142.8958435058594	721.3057861328125	38.71470642089844	270.1195678710938	738.1935424804688	255.3517608642578	231.5122985839844	888.0384521484375	39.56087875366211	127.4056091308594	876.4569702148438	41.23516464233398	209.5347595214844	779.4332885742188	39.68846893310547	161.7144927978516	726.28076171875	38.65281677246094	356.1642456054688	998.3331298828125	495.4027709960938	317.165771484375	1055.469970703125	781.5099487304688	336.6702575683594	899.1888427734375	41.70757293701172	405.1096801757812	975.9434814453125	352.5023193359375	315.1568603515625	984.283203125	39.06145095825195	194.1623992919922	915.3132934570312	43.02020645141602	227.9334564208984	987.068115234375	40.310546875	305.6868591308594	822.1740112304688	37.3544807434082	419.0178527832031	751.9869384765625	740.687744140625	73.06557464599609	816.4271850585938	1229.965087890625	379.5189514160156	nan	nan	nan	
438	4.37	873.8919067382812	1014.260559082031	406.93212890625	765.0859375	1021.490112304688	329.2985229492188	821.235595703125	1104.729125976562	363.7988891601562	948.8582153320312	1301.03955078125	180.8502502441406	856.197021484375	1504.70458984375	363.4902648925781	939.5008544921875	1411.828247070312	204.51123046875	888.2443237304688	1372.73876953125	460.4794311523438	760.0144653320312	1454.238647460938	339.6559143066406	740.3870239257812	1485.152954101562	214.8037414550781	668.0234375	1358.697021484375	177.6288146972656	660.4693603515625	1139.613159179688	137.4366455078125	666.0324096679688	1125.295166015625	237.3004760742188	751.1348266601562	903.6649780273438	62.51203155517578	667.16357421875	879.8162841796875	65.43422698974609	667.0083618164062	1055.380004882812	108.3835601806641	678.992919921875	820.0899658203125	59.54999160766602	742.242431640625	826.5432739257812	35.32138061523438	1018.124633789062	1460.8603515625	395.4173278808594	1063.65234375	1392.186157226562	443.7438049316406	1094.3046875	1099.876708984375	453.0552368164062	1040.169067382812	1082.710083007812	482.5795288085938	1132.260986328125	883.6898803710938	310.6044921875	1160.178955078125	860.52685546875	384.8275146484375	1105.056274414062	1044.944213867188	446.2887268066406	1133.188842773438	711.8206787109375	301.3654174804688	1159.532592773438	792.144775390625	293.62255859375	1167.296997070312	787.066650390625	367.4019470214844	963.2190551757812	1684.962280273438	344.3355102539062	913.873779296875	1722.863037109375	145.7473449707031	1033.41015625	1713.891723632812	225.6352996826172	828.89794921875	1694.207763671875	245.3100128173828	729.3133544921875	942.4811401367188	150.5427551269531	1042.089111328125	936.0264282226562	375.8981628417969	1045.828979492188	970.31640625	270.39501953125	817.0369873046875	967.32470703125	115.1139221191406	790.053955078125	496.2017822265625	162.0792541503906	759.9974365234375	662.3699340820312	142.8117218017578	721.33544921875	38.71059417724609	270.1577758789062	738.0128173828125	255.34716796875	231.7013244628906	888.0481567382812	39.56665420532227	127.4249267578125	876.4815063476562	41.22871398925781	209.5679626464844	779.451904296875	39.69476699829102	161.7269592285156	726.307861328125	38.61554336547852	356.1867980957031	998.0737915039062	495.3353576660156	317.2528381347656	1055.419921875	781.4248657226562	336.30859375	899.1270751953125	41.63528442382812	405.1428527832031	975.6281127929688	352.4478454589844	315.3449096679688	984.2632446289062	39.12200927734375	194.2111968994141	915.2611083984375	43.00770950317383	227.9390869140625	987.00390625	40.34604263305664	305.6576538085938	822.103271484375	37.15785598754883	419.003173828125	751.8225708007812	740.5670166015625	71.95619964599609	816.440673828125	1229.921142578125	378.9664001464844	nan	nan	nan	
439	4.38	873.9634399414062	1014.274597167969	406.4425964355469	765.169921875	1021.554565429688	328.8279418945312	821.306640625	1104.687622070312	363.3143920898438	948.8328247070312	1300.99755859375	180.3480682373047	856.1687622070312	1504.666137695312	362.98046875	939.489013671875	1411.773559570312	203.9746856689453	888.1858520507812	1372.792846679688	459.9284057617188	760.0044555664062	1454.188842773438	339.2087707519531	740.3519897460938	1485.06640625	214.3023376464844	668.038818359375	1358.59521484375	177.1605224609375	660.5587768554688	1139.576782226562	136.7464447021484	666.2028198242188	1125.164916992188	236.6617431640625	751.0578002929688	903.6703491210938	61.55665969848633	667.0768432617188	879.7780151367188	64.61924743652344	667.0667114257812	1055.367797851562	107.6102828979492	678.9190063476562	820.0831298828125	58.62203979492188	742.0921630859375	826.5745849609375	34.31002426147461	1018.150634765625	1460.91943359375	394.8573608398438	1063.614624023438	1392.206176757812	443.2940673828125	1094.104125976562	1099.898559570312	452.6392822265625	1039.97705078125	1082.830078125	482.2227783203125	1131.731689453125	883.3983154296875	310.5695495605469	1159.696655273438	860.3573608398438	384.8290100097656	1104.766235351562	1044.925415039062	446.0208740234375	1132.4013671875	711.4602661132812	301.7552185058594	1158.8701171875	791.7510986328125	293.7523193359375	1166.690063476562	786.8663330078125	367.5662536621094	963.1600341796875	1685.002685546875	343.673095703125	913.7468872070312	1722.826049804688	145.1134643554688	1033.279174804688	1713.926147460938	225.0142059326172	828.7012939453125	1694.097778320312	244.8432159423828	729.2920532226562	942.4816284179688	150.1376495361328	1042.087036132812	935.9782104492188	375.3612060546875	1045.866943359375	970.2619018554688	269.8889465332031	817.0109252929688	967.2488403320312	114.6750946044922	789.8078002929688	496.1809997558594	162.3432464599609	759.8243408203125	662.3450317382812	142.7186889648438	721.3659057617188	38.70907592773438	270.1813049316406	737.8328247070312	255.3458862304688	231.8773345947266	888.0582885742188	39.57314300537109	127.4418029785156	876.501220703125	41.22317886352539	209.5931396484375	779.4590454101562	39.69755172729492	161.7348480224609	726.336181640625	38.58682250976562	356.2031860351562	997.8133544921875	495.2909240722656	317.342529296875	1055.353393554688	781.3661499023438	335.9872741699219	899.0740966796875	41.56904983520508	405.1740112304688	975.3029174804688	352.4051818847656	315.5555725097656	984.2430419921875	39.17871475219727	194.2642059326172	915.2156982421875	42.99972152709961	227.9422912597656	986.9449462890625	40.37667083740234	305.6298828125	822.0492553710938	36.98496246337891	418.9952087402344	751.7581787109375	740.5272216796875	70.80855560302734	816.4186401367188	1229.875122070312	378.4341430664062	nan	nan	nan	
440	4.39	874.0411376953125	1014.29638671875	405.9899291992188	765.2435302734375	1021.613220214844	328.41259765625	821.3485717773438	1104.663330078125	362.8570251464844	948.7932739257812	1300.965942382812	179.8619842529297	856.1404418945312	1504.6435546875	362.4943542480469	939.460205078125	1411.734985351562	203.4561309814453	888.1114501953125	1372.839599609375	459.3982543945312	759.990234375	1454.15478515625	338.7720336914062	740.3190307617188	1485.011962890625	213.8125305175781	668.0267944335938	1358.527221679688	176.71435546875	660.6054077148438	1139.571166992188	136.1021270751953	666.319580078125	1125.076782226562	236.0779876708984	751.0060424804688	903.7460327148438	60.61074447631836	667.0277709960938	879.7817993164062	63.81358337402344	667.097412109375	1055.389526367188	106.8808670043945	678.9059448242188	820.12744140625	57.6854362487793	741.9696655273438	826.680908203125	33.31701278686523	1018.164428710938	1460.99560546875	394.31396484375	1063.567626953125	1392.238891601562	442.8565673828125	1093.901977539062	1099.937744140625	452.2218017578125	1039.80517578125	1082.933959960938	481.8597412109375	1131.2783203125	883.14990234375	310.5072631835938	1159.27197265625	860.2275390625	384.797607421875	1104.495361328125	1044.933349609375	445.7318420410156	1131.72021484375	711.1389770507812	302.1028137207031	1158.309936523438	791.416015625	293.8493957519531	1166.162109375	786.7116088867188	367.6889038085938	963.0805053710938	1685.041137695312	343.0359191894531	913.6542358398438	1722.8076171875	144.474609375	1033.134643554688	1713.94873046875	224.4444122314453	828.50927734375	1694.00439453125	244.3667297363281	729.259033203125	942.4889526367188	149.7606048583984	1042.102416992188	935.951904296875	374.8200988769531	1045.878173828125	970.2163696289062	269.4090881347656	816.9483642578125	967.1844482421875	114.265739440918	789.5914916992188	496.1702270507812	162.5579528808594	759.6755981445312	662.3214111328125	142.6202087402344	721.393310546875	38.70820617675781	270.1918029785156	737.6473388671875	255.3398132324219	232.0494995117188	888.0689086914062	39.58060836791992	127.4566116333008	876.5166625976562	41.21547317504883	209.6133880615234	779.4600219726562	39.69914627075195	161.7395324707031	726.3638916015625	38.56596374511719	356.2144470214844	997.555419921875	495.2665710449219	317.4317932128906	1055.275756835938	781.3280029296875	335.711669921875	899.0306396484375	41.50949096679688	405.2041015625	974.9818115234375	352.3744812011719	315.7742919921875	984.2221069335938	39.22940444946289	194.3213348388672	915.1768188476562	42.99463653564453	227.9434204101562	986.89306640625	40.40273284912109	305.6047973632812	822.0114135742188	36.842041015625	419.002685546875	751.7883911132812	740.5678100585938	69.64013671875	816.373291015625	1229.825927734375	377.9214477539062	nan	nan	nan	
